<svg xmlns="http://www.w3.org/2000/svg" viewBox="0 0 100 100">
  <!-- speech-bubble ring -->
  <circle cx="50" cy="50" r="42" fill="none" stroke="#85C79F" stroke-width="6"/>
  <path d="M16 76 L7 95 L28 87 Z" fill="#85C79F"/>
  <!-- heart -->
  <path d="M50 23.5 C47.5 19, 41.5 19, 41.5 24.5 C41.5 29.5 47 32 50 35 C53 32 58.5 29.5 58.5 24.5 C58.5 19 52.5 19 50 23.5 Z" fill="#F08072"/>
  <!-- people -->
  <circle cx="32" cy="46" r="7" fill="#82C0C0"/>
  <rect x="23.5" y="55" width="17" height="21" rx="8.5" fill="#82C0C0"/>
  <circle cx="68" cy="46" r="7" fill="#F2B858"/>
  <rect x="59.5" y="55" width="17" height="21" rx="8.5" fill="#F2B858"/>
  <circle cx="50" cy="49" r="8" fill="#5B84C4"/>
  <rect x="40.5" y="59" width="19" height="22" rx="9.5" fill="#5B84C4"/>
  <!-- cradling hand -->
  <path d="M12 73 Q30 84 50 84 Q71 84 87 67 Q84 81 68 88 Q42 97 23 87 Q14 81 12 73 Z" fill="#85C79F"/>
</svg>
